<svg width="189" height="38" viewBox="0 0 189 38" fill="none" xmlns="http://www.w3.org/2000/svg">
<path d="M70.8782 0.740234V3.92323H62.622V19.0001H58.7614V0.740234H70.8782Z" fill="#FEFDFD"/>
<path d="M77.5339 19.2676C76.1252 19.2676 74.9127 18.9822 73.8962 18.4116C72.8858 17.8351 72.1071 17.0207 71.5603 15.9687C71.0134 14.9106 70.74 13.6594 70.74 12.2151C70.74 10.8063 71.0134 9.56999 71.5603 8.50602C72.1071 7.44205 72.8769 6.61287 73.8695 6.01847C74.8681 5.42408 76.039 5.12688 77.3824 5.12688C78.2859 5.12688 79.1269 5.2725 79.9056 5.56376C80.6902 5.84907 81.3737 6.28001 81.9562 6.85657C82.5447 7.43313 83.0024 8.1583 83.3293 9.03206C83.6562 9.89988 83.8197 10.9163 83.8197 12.0813V13.1245H72.2557V10.7707H80.2444C80.2444 10.2238 80.1255 9.73939 79.8877 9.31737C79.65 8.89535 79.3201 8.56546 78.8981 8.3277C78.482 8.084 77.9976 7.96215 77.4448 7.96215C76.8682 7.96215 76.357 8.09589 75.9112 8.36336C75.4714 8.6249 75.1266 8.97856 74.877 9.42436C74.6273 9.86421 74.4995 10.3546 74.4936 10.8955V13.1334C74.4936 13.811 74.6184 14.3965 74.8681 14.8898C75.1237 15.3832 75.4833 15.7636 75.9469 16.0311C76.4105 16.2986 76.9604 16.4323 77.5964 16.4323C78.0184 16.4323 78.4047 16.3729 78.7554 16.254C79.1061 16.1351 79.4063 15.9568 79.6559 15.719C79.9056 15.4813 80.0958 15.19 80.2266 14.8453L83.7394 15.0771C83.5611 15.9211 83.1956 16.6582 82.6428 17.2882C82.0959 17.9123 81.3886 18.3997 80.5208 18.7504C79.6589 19.0952 78.6633 19.2676 77.5339 19.2676Z" fill="#FEFDFD"/>
<path d="M95.8295 10.6369V13.6238H88.6789V10.6369H95.8295ZM89.9271 5.3052V19.0001H86.2983V5.3052H89.9271ZM98.21 5.3052V19.0001H94.608V5.3052H98.21Z" fill="#FEFDFD"/>
<path d="M107.398 19.2676C105.989 19.2676 104.777 18.9822 103.76 18.4116C102.75 17.8351 101.971 17.0207 101.424 15.9687C100.877 14.9106 100.604 13.6594 100.604 12.2151C100.604 10.8063 100.877 9.56999 101.424 8.50602C101.971 7.44205 102.741 6.61287 103.733 6.01847C104.732 5.42408 105.903 5.12688 107.246 5.12688C108.15 5.12688 108.991 5.2725 109.77 5.56376C110.554 5.84907 111.238 6.28001 111.82 6.85657C112.409 7.43313 112.866 8.1583 113.193 9.03206C113.52 9.89988 113.684 10.9163 113.684 12.0813V13.1245H102.12V10.7707H110.108C110.108 10.2238 109.989 9.73939 109.752 9.31737C109.514 8.89535 109.184 8.56546 108.762 8.3277C108.346 8.084 107.862 7.96215 107.309 7.96215C106.732 7.96215 106.221 8.09589 105.775 8.36336C105.335 8.6249 104.991 8.97856 104.741 9.42436C104.491 9.86421 104.363 10.3546 104.358 10.8955V13.1334C104.358 13.811 104.482 14.3965 104.732 14.8898C104.988 15.3832 105.347 15.7636 105.811 16.0311C106.274 16.2986 106.824 16.4323 107.46 16.4323C107.882 16.4323 108.269 16.3729 108.619 16.254C108.97 16.1351 109.27 15.9568 109.52 15.719C109.77 15.4813 109.96 15.19 110.09 14.8453L113.603 15.0771C113.425 15.9211 113.06 16.6582 112.507 17.2882C111.96 17.9123 111.253 18.3997 110.385 18.7504C109.523 19.0952 108.527 19.2676 107.398 19.2676Z" fill="#FEFDFD"/>
<path d="M116.162 24.1357V5.3052H119.907V7.60551H120.076C120.243 7.23698 120.484 6.86251 120.799 6.4821C121.12 6.09574 121.536 5.77477 122.047 5.51918C122.564 5.25765 123.206 5.12688 123.973 5.12688C124.971 5.12688 125.893 5.38841 126.737 5.91148C127.581 6.42861 128.255 7.21024 128.76 8.25637C129.266 9.29657 129.518 10.6013 129.518 12.1705C129.518 13.6981 129.272 14.9879 128.778 16.04C128.291 17.0861 127.625 17.8796 126.781 18.4205C125.943 18.9555 125.004 19.223 123.964 19.223C123.227 19.223 122.6 19.1011 122.082 18.8574C121.571 18.6137 121.152 18.3076 120.825 17.9391C120.498 17.5646 120.249 17.1872 120.076 16.8068H119.96V24.1357H116.162ZM119.88 12.1526C119.88 12.967 119.993 13.6773 120.219 14.2835C120.445 14.8898 120.772 15.3624 121.2 15.7012C121.628 16.034 122.148 16.2005 122.76 16.2005C123.378 16.2005 123.901 16.0311 124.329 15.6923C124.757 15.3475 125.081 14.872 125.301 14.2657C125.527 13.6535 125.64 12.9491 125.64 12.1526C125.64 11.3621 125.53 10.6666 125.31 10.0663C125.09 9.46597 124.766 8.9964 124.338 8.65759C123.91 8.31878 123.384 8.14938 122.76 8.14938C122.142 8.14938 121.619 8.31284 121.191 8.63976C120.769 8.96668 120.445 9.4303 120.219 10.0306C119.993 10.631 119.88 11.3383 119.88 12.1526Z" fill="#FEFDFD"/>
<path d="M135.956 19.2586C135.082 19.2586 134.303 19.1071 133.62 18.8039C132.936 18.4948 132.395 18.0401 131.997 17.4398C131.605 16.8335 131.409 16.0786 131.409 15.1751C131.409 14.4143 131.548 13.7753 131.828 13.2582C132.107 12.7411 132.487 12.325 132.969 12.01C133.45 11.695 133.997 11.4572 134.609 11.2967C135.228 11.1362 135.875 11.0233 136.553 10.9579C137.35 10.8747 137.991 10.7974 138.479 10.7261C138.966 10.6488 139.32 10.5359 139.54 10.3873C139.76 10.2387 139.87 10.0188 139.87 9.7275V9.67401C139.87 9.10933 139.691 8.67245 139.335 8.36336C138.984 8.05428 138.485 7.89973 137.837 7.89973C137.153 7.89973 136.609 8.05131 136.205 8.35445C135.801 8.65165 135.534 9.02612 135.403 9.47786L131.89 9.19255C132.068 8.36039 132.419 7.64117 132.942 7.03489C133.465 6.42266 134.14 5.95309 134.966 5.62617C135.798 5.29331 136.761 5.12688 137.855 5.12688C138.616 5.12688 139.344 5.21604 140.039 5.39435C140.741 5.57267 141.362 5.84907 141.903 6.22354C142.449 6.59801 142.88 7.07947 143.195 7.66792C143.51 8.25043 143.668 8.94884 143.668 9.76317V19.0001H140.066V17.101H139.959C139.739 17.529 139.445 17.9064 139.076 18.2333C138.708 18.5543 138.265 18.8069 137.748 18.9912C137.231 19.1695 136.633 19.2586 135.956 19.2586ZM137.043 16.6374C137.602 16.6374 138.095 16.5274 138.523 16.3075C138.951 16.0816 139.287 15.7785 139.531 15.398C139.775 15.0176 139.896 14.5867 139.896 14.1052V12.6519C139.778 12.7292 139.614 12.8005 139.406 12.8659C139.204 12.9254 138.975 12.9818 138.72 13.0353C138.464 13.0829 138.208 13.1274 137.953 13.1691C137.697 13.2047 137.465 13.2374 137.257 13.2671C136.812 13.3325 136.422 13.4365 136.089 13.5792C135.757 13.7218 135.498 13.915 135.314 14.1587C135.129 14.3965 135.037 14.6937 135.037 15.0503C135.037 15.5674 135.225 15.9627 135.599 16.2361C135.979 16.5036 136.461 16.6374 137.043 16.6374Z" fill="#FEFDFD"/>
<path d="M145.239 8.29204V5.3052H157.65V8.29204H153.237V19.0001H149.617V8.29204H145.239Z" fill="#FEFDFD"/>
<path d="M165.65 19.2676C164.265 19.2676 163.068 18.9733 162.057 18.3849C161.053 17.7905 160.277 16.9643 159.73 15.9062C159.183 14.8423 158.91 13.6089 158.91 12.2061C158.91 10.7915 159.183 9.55513 159.73 8.4971C160.277 7.43313 161.053 6.60692 162.057 6.01847C163.068 5.42408 164.265 5.12688 165.65 5.12688C167.035 5.12688 168.23 5.42408 169.234 6.01847C170.245 6.60692 171.024 7.43313 171.57 8.4971C172.117 9.55513 172.391 10.7915 172.391 12.2061C172.391 13.6089 172.117 14.8423 171.57 15.9062C171.024 16.9643 170.245 17.7905 169.234 18.3849C168.23 18.9733 167.035 19.2676 165.65 19.2676ZM165.668 16.3253C166.298 16.3253 166.824 16.147 167.246 15.7903C167.668 15.4278 167.986 14.9344 168.2 14.3103C168.42 13.6862 168.53 12.9759 168.53 12.1794C168.53 11.3829 168.42 10.6726 168.2 10.0485C167.986 9.42436 167.668 8.93101 167.246 8.56843C166.824 8.20585 166.298 8.02456 165.668 8.02456C165.032 8.02456 164.497 8.20585 164.063 8.56843C163.635 8.93101 163.311 9.42436 163.091 10.0485C162.877 10.6726 162.77 11.3829 162.77 12.1794C162.77 12.9759 162.877 13.6862 163.091 14.3103C163.311 14.9344 163.635 15.4278 164.063 15.7903C164.497 16.147 165.032 16.3253 165.668 16.3253Z" fill="#FEFDFD"/>
<path d="M174.86 24.1357V5.3052H178.605V7.60551H178.774C178.941 7.23698 179.182 6.86251 179.497 6.4821C179.818 6.09574 180.234 5.77477 180.745 5.51918C181.262 5.25765 181.904 5.12688 182.671 5.12688C183.669 5.12688 184.591 5.38841 185.435 5.91148C186.279 6.42861 186.953 7.21024 187.459 8.25637C187.964 9.29657 188.216 10.6013 188.216 12.1705C188.216 13.6981 187.97 14.9879 187.476 16.04C186.989 17.0861 186.323 17.8796 185.479 18.4205C184.641 18.9555 183.702 19.223 182.662 19.223C181.925 19.223 181.298 19.1011 180.781 18.8574C180.269 18.6137 179.85 18.3076 179.523 17.9391C179.196 17.5646 178.947 17.1872 178.774 16.8068H178.659V24.1357H174.86ZM178.578 12.1526C178.578 12.967 178.691 13.6773 178.917 14.2835C179.143 14.8898 179.47 15.3624 179.898 15.7012C180.326 16.034 180.846 16.2005 181.458 16.2005C182.076 16.2005 182.599 16.0311 183.027 15.6923C183.455 15.3475 183.779 14.872 183.999 14.2657C184.225 13.6535 184.338 12.9491 184.338 12.1526C184.338 11.3621 184.228 10.6666 184.008 10.0663C183.788 9.46597 183.464 8.9964 183.036 8.65759C182.608 8.31878 182.082 8.14938 181.458 8.14938C180.84 8.14938 180.317 8.31284 179.889 8.63976C179.467 8.96668 179.143 9.4303 178.917 10.0306C178.691 10.631 178.578 11.3383 178.578 12.1526Z" fill="#FEFDFD"/>
<path d="M57.7695 28.3295H59.2139V32.6359H59.2708L62.2297 28.3295H63.4969V35.177H62.0492V30.8672H61.999L59.0233 35.177H57.7695V28.3295Z" fill="#FEFDFD"/>
<path d="M68.2405 32.0408V33.1609H65.559V32.0408H68.2405ZM66.0271 30.0414V35.177H64.6663V30.0414H66.0271ZM69.1332 30.0414V35.177H67.7824V30.0414H69.1332Z" fill="#FEFDFD"/>
<path d="M69.9038 35.177L71.6993 32.5055L69.9139 30.0414H71.5388L72.8729 32.0508H73.0935V30.0414H74.5178V32.0508H74.7318L76.0659 30.0414H77.6908L75.9087 32.5055L77.7008 35.177H76.0391L74.7185 33.1709H74.5178V35.177H73.0935V33.1709H72.8929L71.5656 35.177H69.9038Z" fill="#FEFDFD"/>
<path d="M80.6607 35.2773C80.1324 35.2773 79.6777 35.1703 79.2965 34.9563C78.9176 34.7401 78.6256 34.4347 78.4205 34.0402C78.2155 33.6434 78.1129 33.1742 78.1129 32.6326C78.1129 32.1043 78.2155 31.6407 78.4205 31.2417C78.6256 30.8427 78.9142 30.5318 79.2865 30.3089C79.661 30.086 80.1001 29.9745 80.6038 29.9745C80.9426 29.9745 81.258 30.0291 81.55 30.1384C81.8442 30.2454 82.1006 30.407 82.319 30.6232C82.5397 30.8394 82.7113 31.1113 82.8339 31.439C82.9565 31.7644 83.0178 32.1456 83.0178 32.5824V32.9736H78.6813V32.091H81.6771C81.6771 31.8859 81.6325 31.7042 81.5433 31.546C81.4542 31.3877 81.3305 31.264 81.1722 31.1748C81.0162 31.0835 80.8345 31.0378 80.6272 31.0378C80.411 31.0378 80.2193 31.0879 80.0521 31.1882C79.8872 31.2863 79.7579 31.4189 79.6643 31.5861C79.5707 31.751 79.5228 31.9349 79.5205 32.1378V32.977C79.5205 33.2311 79.5673 33.4506 79.661 33.6356C79.7568 33.8206 79.8917 33.9633 80.0655 34.0636C80.2394 34.1639 80.4456 34.2141 80.6841 34.2141C80.8423 34.2141 80.9872 34.1918 81.1187 34.1472C81.2502 34.1026 81.3628 34.0357 81.4564 33.9466C81.55 33.8574 81.6213 33.7482 81.6704 33.6189L82.9877 33.7059C82.9208 34.0224 82.7838 34.2988 82.5765 34.535C82.3714 34.7691 82.1061 34.9519 81.7807 35.0834C81.4575 35.2126 81.0842 35.2773 80.6607 35.2773Z" fill="#FEFDFD"/>
<path d="M87.5215 32.0408V33.1609H84.84V32.0408H87.5215ZM85.3081 30.0414V35.177H83.9473V30.0414H85.3081ZM88.4142 30.0414V35.177H87.0634V30.0414H88.4142Z" fill="#FEFDFD"/>
<path d="M91.8596 35.2773C91.3314 35.2773 90.8766 35.1703 90.4955 34.9563C90.1166 34.7401 89.8246 34.4347 89.6195 34.0402C89.4144 33.6434 89.3119 33.1742 89.3119 32.6326C89.3119 32.1043 89.4144 31.6407 89.6195 31.2417C89.8246 30.8427 90.1132 30.5318 90.4855 30.3089C90.8599 30.086 91.299 29.9745 91.8028 29.9745C92.1416 29.9745 92.457 30.0291 92.749 30.1384C93.0432 30.2454 93.2996 30.407 93.518 30.6232C93.7387 30.8394 93.9103 31.1113 94.0329 31.439C94.1555 31.7644 94.2168 32.1456 94.2168 32.5824V32.9736H89.8803V32.091H92.876C92.876 31.8859 92.8315 31.7042 92.7423 31.546C92.6531 31.3877 92.5294 31.264 92.3712 31.1748C92.2152 31.0835 92.0335 31.0378 91.8262 31.0378C91.61 31.0378 91.4183 31.0879 91.2511 31.1882C91.0862 31.2863 90.9569 31.4189 90.8633 31.5861C90.7697 31.751 90.7217 31.9349 90.7195 32.1378V32.977C90.7195 33.2311 90.7663 33.4506 90.8599 33.6356C90.9558 33.8206 91.0906 33.9633 91.2645 34.0636C91.4384 34.1639 91.6445 34.2141 91.883 34.2141C92.0413 34.2141 92.1862 34.1918 92.3177 34.1472C92.4492 34.1026 92.5618 34.0357 92.6554 33.9466C92.749 33.8574 92.8203 33.7482 92.8694 33.6189L94.1867 33.7059C94.1198 34.0224 93.9827 34.2988 93.7754 34.535C93.5704 34.7691 93.3051 34.9519 92.9797 35.0834C92.6565 35.2126 92.2831 35.2773 91.8596 35.2773Z" fill="#FEFDFD"/>
<path d="M95.1463 37.1028V30.0414H96.5505V30.904H96.6141C96.6765 30.7658 96.7667 30.6254 96.8849 30.4827C97.0052 30.3379 97.1613 30.2175 97.353 30.1216C97.5469 30.0236 97.7876 29.9745 98.0752 29.9745C98.4496 29.9745 98.7951 30.0726 99.1116 30.2688C99.4282 30.4627 99.6811 30.7558 99.8706 31.1481C100.06 31.5382 100.155 32.0274 100.155 32.6159C100.155 33.1887 100.062 33.6724 99.8773 34.0669C99.6945 34.4592 99.4449 34.7568 99.1284 34.9597C98.8141 35.1603 98.4619 35.2606 98.0718 35.2606C97.7954 35.2606 97.5603 35.2149 97.3663 35.1235C97.1746 35.0321 97.0175 34.9173 96.8949 34.7791C96.7723 34.6387 96.6787 34.4971 96.6141 34.3545H96.5706V37.1028H95.1463ZM96.5405 32.6092C96.5405 32.9146 96.5829 33.1809 96.6676 33.4083C96.7523 33.6356 96.8748 33.8128 97.0353 33.9399C97.1958 34.0647 97.3909 34.1271 97.6204 34.1271C97.8523 34.1271 98.0484 34.0636 98.2089 33.9366C98.3694 33.8073 98.4909 33.629 98.5733 33.4016C98.658 33.172 98.7004 32.9079 98.7004 32.6092C98.7004 32.3127 98.6592 32.0519 98.5767 31.8268C98.4942 31.6017 98.3727 31.4256 98.2122 31.2985C98.0518 31.1715 97.8545 31.108 97.6204 31.108C97.3886 31.108 97.1925 31.1693 97.032 31.2919C96.8737 31.4145 96.7523 31.5883 96.6676 31.8134C96.5829 32.0386 96.5405 32.3038 96.5405 32.6092Z" fill="#FEFDFD"/>
<path d="M104.679 32.0408V33.1609H101.997V32.0408H104.679ZM102.465 30.0414V35.177H101.104V30.0414H102.465ZM105.571 30.0414V35.177H104.22V30.0414H105.571Z" fill="#FEFDFD"/>
<path d="M108.141 35.2739C107.813 35.2739 107.521 35.2171 107.265 35.1034C107.008 34.9875 106.806 34.817 106.656 34.5919C106.509 34.3645 106.436 34.0814 106.436 33.7426C106.436 33.4573 106.488 33.2177 106.593 33.0238C106.697 32.8299 106.84 32.6738 107.021 32.5557C107.201 32.4376 107.406 32.3484 107.636 32.2882C107.868 32.228 108.111 32.1857 108.365 32.1612C108.663 32.13 108.904 32.101 109.087 32.0742C109.27 32.0453 109.402 32.0029 109.485 31.9472C109.567 31.8915 109.608 31.809 109.608 31.6998V31.6797C109.608 31.468 109.542 31.3041 109.408 31.1882C109.276 31.0723 109.089 31.0144 108.846 31.0144C108.59 31.0144 108.386 31.0712 108.234 31.1849C108.083 31.2963 107.982 31.4367 107.933 31.6061L106.616 31.4992C106.683 31.1871 106.814 30.9174 107.011 30.69C107.207 30.4605 107.46 30.2844 107.77 30.1618C108.082 30.0369 108.443 29.9745 108.853 29.9745C109.138 29.9745 109.411 30.008 109.672 30.0748C109.935 30.1417 110.168 30.2454 110.371 30.3858C110.576 30.5262 110.737 30.7068 110.856 30.9274C110.974 31.1459 111.033 31.4078 111.033 31.7131V35.177H109.682V34.4648H109.642C109.559 34.6253 109.449 34.7668 109.311 34.8894C109.173 35.0098 109.007 35.1045 108.813 35.1736C108.619 35.2405 108.395 35.2739 108.141 35.2739ZM108.549 34.291C108.758 34.291 108.943 34.2497 109.104 34.1673C109.264 34.0826 109.39 33.9689 109.481 33.8262C109.573 33.6836 109.619 33.522 109.619 33.3414V32.7964C109.574 32.8254 109.513 32.8522 109.435 32.8767C109.359 32.899 109.273 32.9201 109.177 32.9402C109.081 32.958 108.985 32.9747 108.89 32.9903C108.794 33.0037 108.707 33.016 108.629 33.0271C108.462 33.0516 108.316 33.0907 108.191 33.1441C108.066 33.1976 107.969 33.2701 107.9 33.3615C107.831 33.4506 107.796 33.5621 107.796 33.6958C107.796 33.8897 107.867 34.038 108.007 34.1405C108.15 34.2408 108.33 34.291 108.549 34.291Z" fill="#FEFDFD"/>
<path d="M115.147 35.177V31.1581H114.184C113.923 31.1581 113.725 31.2183 113.589 31.3387C113.453 31.459 113.386 31.6017 113.388 31.7666C113.386 31.9338 113.451 32.0753 113.582 32.1913C113.716 32.3049 113.912 32.3618 114.171 32.3618H115.622V33.3247H114.171C113.732 33.3247 113.352 33.2578 113.031 33.1241C112.71 32.9903 112.462 32.8042 112.288 32.5657C112.114 32.325 112.029 32.0453 112.031 31.7265C112.029 31.3922 112.114 31.0991 112.288 30.8472C112.462 30.5931 112.711 30.3958 113.034 30.2554C113.359 30.1127 113.743 30.0414 114.184 30.0414H116.474V35.177H115.147ZM111.884 35.177L113.311 32.5022H114.672L113.248 35.177H111.884Z" fill="#FEFDFD"/>
<path d="M119.76 35.177V30.0414H124.25V35.177H122.89V31.1615H121.104V35.177H119.76Z" fill="#FEFDFD"/>
<path d="M125.086 35.177L125.08 34.0469H125.25C125.37 34.0469 125.474 34.0179 125.561 33.96C125.65 33.8998 125.724 33.8028 125.782 33.6691C125.84 33.5353 125.885 33.3581 125.919 33.1375C125.952 32.9146 125.975 32.6404 125.986 32.315L126.069 30.0414H129.974V35.177H128.617V31.1615H127.35L127.27 32.7296C127.25 33.1598 127.197 33.5298 127.112 33.8396C127.03 34.1494 126.915 34.4035 126.768 34.6019C126.621 34.7981 126.444 34.9429 126.236 35.0366C126.029 35.1302 125.788 35.177 125.514 35.177H125.086Z" fill="#FEFDFD"/>
<path d="M132.543 35.2739C132.215 35.2739 131.923 35.2171 131.667 35.1034C131.411 34.9875 131.208 34.817 131.059 34.5919C130.911 34.3645 130.838 34.0814 130.838 33.7426C130.838 33.4573 130.89 33.2177 130.995 33.0238C131.1 32.8299 131.242 32.6738 131.423 32.5557C131.604 32.4376 131.809 32.3484 132.038 32.2882C132.27 32.228 132.513 32.1857 132.767 32.1612C133.066 32.13 133.307 32.101 133.489 32.0742C133.672 32.0453 133.805 32.0029 133.887 31.9472C133.97 31.8915 134.011 31.809 134.011 31.6998V31.6797C134.011 31.468 133.944 31.3041 133.81 31.1882C133.679 31.0723 133.492 31.0144 133.249 31.0144C132.992 31.0144 132.788 31.0712 132.637 31.1849C132.485 31.2963 132.385 31.4367 132.336 31.6061L131.018 31.4992C131.085 31.1871 131.217 30.9174 131.413 30.69C131.609 30.4605 131.862 30.2844 132.172 30.1618C132.484 30.0369 132.845 29.9745 133.255 29.9745C133.541 29.9745 133.814 30.008 134.074 30.0748C134.337 30.1417 134.57 30.2454 134.773 30.3858C134.978 30.5262 135.14 30.7068 135.258 30.9274C135.376 31.1459 135.435 31.4078 135.435 31.7131V35.177H134.084V34.4648H134.044C133.962 34.6253 133.851 34.7668 133.713 34.8894C133.575 35.0098 133.409 35.1045 133.215 35.1736C133.021 35.2405 132.797 35.2739 132.543 35.2739ZM132.951 34.291C133.161 34.291 133.346 34.2497 133.506 34.1673C133.666 34.0826 133.792 33.9689 133.884 33.8262C133.975 33.6836 134.021 33.522 134.021 33.3414V32.7964C133.976 32.8254 133.915 32.8522 133.837 32.8767C133.761 32.899 133.675 32.9201 133.58 32.9402C133.484 32.958 133.388 32.9747 133.292 32.9903C133.196 33.0037 133.109 33.016 133.031 33.0271C132.864 33.0516 132.718 33.0907 132.593 33.1441C132.468 33.1976 132.371 33.2701 132.302 33.3615C132.233 33.4506 132.199 33.5621 132.199 33.6958C132.199 33.8897 132.269 34.038 132.409 34.1405C132.552 34.2408 132.733 34.291 132.951 34.291Z" fill="#FEFDFD"/>
<path d="M136.024 31.1615V30.0414H140.679V31.1615H139.024V35.177H137.666V31.1615H136.024Z" fill="#FEFDFD"/>
<path d="M143.816 36.9223V28.3295H145.237V36.9223H143.816ZM143.816 35.2773C143.421 35.2773 143.061 35.2138 142.736 35.0867C142.41 34.9574 142.129 34.7758 141.893 34.5417C141.657 34.3055 141.474 34.0257 141.345 33.7025C141.215 33.3771 141.151 33.0193 141.151 32.6293C141.151 32.2347 141.215 31.8759 141.345 31.5527C141.474 31.2272 141.657 30.9475 141.893 30.7134C142.129 30.4772 142.41 30.2955 142.736 30.1685C143.061 30.0392 143.421 29.9745 143.816 29.9745H144.08V35.2773H143.816ZM143.816 34.1673H143.973V31.0846H143.816C143.624 31.0846 143.453 31.1247 143.304 31.2049C143.155 31.2852 143.029 31.3955 142.926 31.5359C142.824 31.6741 142.746 31.8368 142.692 32.0241C142.641 32.2113 142.615 32.413 142.615 32.6293C142.615 32.9146 142.662 33.1742 142.756 33.4083C142.849 33.6401 142.986 33.8251 143.167 33.9633C143.348 34.0993 143.564 34.1673 143.816 34.1673ZM145.237 35.2773H144.972V29.9745H145.237C145.631 29.9745 145.991 30.0392 146.317 30.1685C146.642 30.2955 146.923 30.4772 147.159 30.7134C147.395 30.9475 147.578 31.2272 147.707 31.5527C147.837 31.8759 147.901 32.2347 147.901 32.6293C147.901 33.0193 147.837 33.3771 147.707 33.7025C147.578 34.0257 147.395 34.3055 147.159 34.5417C146.923 34.7758 146.642 34.9574 146.317 35.0867C145.991 35.2138 145.631 35.2773 145.237 35.2773ZM145.237 34.1673C145.428 34.1673 145.599 34.1282 145.748 34.0502C145.897 33.97 146.023 33.8597 146.126 33.7192C146.228 33.5788 146.306 33.4161 146.36 33.2311C146.413 33.0438 146.44 32.8432 146.44 32.6293C146.44 32.3417 146.392 32.082 146.296 31.8502C146.203 31.6162 146.067 31.4301 145.889 31.2919C145.71 31.1537 145.493 31.0846 145.237 31.0846H145.079V34.1673H145.237Z" fill="#FEFDFD"/>
<path d="M151.154 35.2773C150.634 35.2773 150.185 35.167 149.806 34.9463C149.43 34.7234 149.139 34.4136 148.934 34.0168C148.729 33.6178 148.626 33.1553 148.626 32.6293C148.626 32.0988 148.729 31.6351 148.934 31.2384C149.139 30.8394 149.43 30.5295 149.806 30.3089C150.185 30.086 150.634 29.9745 151.154 29.9745C151.673 29.9745 152.121 30.086 152.498 30.3089C152.877 30.5295 153.169 30.8394 153.374 31.2384C153.579 31.6351 153.681 32.0988 153.681 32.6293C153.681 33.1553 153.579 33.6178 153.374 34.0168C153.169 34.4136 152.877 34.7234 152.498 34.9463C152.121 35.167 151.673 35.2773 151.154 35.2773ZM151.16 34.1739C151.397 34.1739 151.594 34.1071 151.752 33.9733C151.91 33.8374 152.03 33.6524 152.11 33.4183C152.192 33.1843 152.234 32.9179 152.234 32.6192C152.234 32.3205 152.192 32.0542 152.11 31.8201C152.03 31.5861 151.91 31.4011 151.752 31.2651C151.594 31.1291 151.397 31.0612 151.16 31.0612C150.922 31.0612 150.721 31.1291 150.559 31.2651C150.398 31.4011 150.277 31.5861 150.194 31.8201C150.114 32.0542 150.074 32.3205 150.074 32.6192C150.074 32.9179 150.114 33.1843 150.194 33.4183C150.277 33.6524 150.398 33.8374 150.559 33.9733C150.721 34.1071 150.922 34.1739 151.16 34.1739Z" fill="#FEFDFD"/>
<path d="M154.608 37.1028V30.0414H156.012V30.904H156.075C156.138 30.7658 156.228 30.6254 156.346 30.4827C156.466 30.3379 156.623 30.2175 156.814 30.1216C157.008 30.0236 157.249 29.9745 157.536 29.9745C157.911 29.9745 158.256 30.0726 158.573 30.2688C158.889 30.4627 159.142 30.7558 159.332 31.1481C159.521 31.5382 159.616 32.0274 159.616 32.6159C159.616 33.1887 159.524 33.6724 159.339 34.0669C159.156 34.4592 158.906 34.7568 158.59 34.9597C158.275 35.1603 157.923 35.2606 157.533 35.2606C157.257 35.2606 157.022 35.2149 156.828 35.1235C156.636 35.0321 156.479 34.9173 156.356 34.7791C156.234 34.6387 156.14 34.4971 156.075 34.3545H156.032V37.1028H154.608ZM156.002 32.6092C156.002 32.9146 156.044 33.1809 156.129 33.4083C156.214 33.6356 156.336 33.8128 156.497 33.9399C156.657 34.0647 156.852 34.1271 157.082 34.1271C157.313 34.1271 157.51 34.0636 157.67 33.9366C157.831 33.8073 157.952 33.629 158.035 33.4016C158.119 33.172 158.162 32.9079 158.162 32.6092C158.162 32.3127 158.12 32.0519 158.038 31.8268C157.955 31.6017 157.834 31.4256 157.673 31.2985C157.513 31.1715 157.316 31.108 157.082 31.108C156.85 31.108 156.654 31.1693 156.493 31.2919C156.335 31.4145 156.214 31.5883 156.129 31.8134C156.044 32.0386 156.002 32.3038 156.002 32.6092Z" fill="#FEFDFD"/>
<path d="M163.601 33.6022L164.992 30.0414H166.076L164.073 35.177H163.127L161.171 30.0414H162.251L163.601 33.6022ZM161.926 30.0414V35.177H160.566V30.0414H161.926ZM165.347 35.177V30.0414H166.691V35.177H165.347Z" fill="#FEFDFD"/>
<path d="M169.257 35.2739C168.929 35.2739 168.637 35.2171 168.381 35.1034C168.125 34.9875 167.922 34.817 167.772 34.5919C167.625 34.3645 167.552 34.0814 167.552 33.7426C167.552 33.4573 167.604 33.2177 167.709 33.0238C167.814 32.8299 167.956 32.6738 168.137 32.5557C168.317 32.4376 168.523 32.3484 168.752 32.2882C168.984 32.228 169.227 32.1857 169.481 32.1612C169.78 32.13 170.02 32.101 170.203 32.0742C170.386 32.0453 170.519 32.0029 170.601 31.9472C170.684 31.8915 170.725 31.809 170.725 31.6998V31.6797C170.725 31.468 170.658 31.3041 170.524 31.1882C170.393 31.0723 170.205 31.0144 169.962 31.0144C169.706 31.0144 169.502 31.0712 169.351 31.1849C169.199 31.2963 169.099 31.4367 169.05 31.6061L167.732 31.4992C167.799 31.1871 167.931 30.9174 168.127 30.69C168.323 30.4605 168.576 30.2844 168.886 30.1618C169.198 30.0369 169.559 29.9745 169.969 29.9745C170.254 29.9745 170.527 30.008 170.788 30.0748C171.051 30.1417 171.284 30.2454 171.487 30.3858C171.692 30.5262 171.854 30.7068 171.972 30.9274C172.09 31.1459 172.149 31.4078 172.149 31.7131V35.177H170.798V34.4648H170.758C170.676 34.6253 170.565 34.7668 170.427 34.8894C170.289 35.0098 170.123 35.1045 169.929 35.1736C169.735 35.2405 169.511 35.2739 169.257 35.2739ZM169.665 34.291C169.874 34.291 170.059 34.2497 170.22 34.1673C170.38 34.0826 170.506 33.9689 170.598 33.8262C170.689 33.6836 170.735 33.522 170.735 33.3414V32.7964C170.69 32.8254 170.629 32.8522 170.551 32.8767C170.475 32.899 170.389 32.9201 170.293 32.9402C170.198 32.958 170.102 32.9747 170.006 32.9903C169.91 33.0037 169.823 33.016 169.745 33.0271C169.578 33.0516 169.432 33.0907 169.307 33.1441C169.182 33.1976 169.085 33.2701 169.016 33.3615C168.947 33.4506 168.913 33.5621 168.913 33.6958C168.913 33.8897 168.983 34.038 169.123 34.1405C169.266 34.2408 169.446 34.291 169.665 34.291Z" fill="#FEFDFD"/>
<path fill-rule="evenodd" clip-rule="evenodd" d="M13.8648 11.9974C11.9983 11.9974 9.68903 12.7991 6.88466 15.2598C5.26405 16.6818 2.68909 16.6338 1.13331 15.1525C-0.422471 13.6712 -0.36992 11.3177 1.25068 9.89566C4.97772 6.62534 9.19985 4.56152 13.8648 4.56152C18.5297 4.56152 22.7519 6.62534 26.4789 9.89566C29.2833 12.3564 31.5925 13.1581 33.459 13.1581C35.3255 13.1581 37.6348 12.3564 40.4392 9.89566C42.0598 8.47365 44.6347 8.52168 46.1905 10.0029C47.7463 11.4842 47.6937 13.8378 46.0731 15.2598C42.3461 18.5301 38.124 20.5939 33.459 20.5939C28.7941 20.5939 24.572 18.5301 20.8449 15.2598C18.0405 12.7991 15.7313 11.9974 13.8648 11.9974Z" fill="#3278FF"/>
</svg>
