<svg width="910" height="122" viewBox="0 0 910 122" fill="none" xmlns="http://www.w3.org/2000/svg">
<path d="M269.296 1.30228H278.635L290.632 35.187L302.792 1.30228H312.131L294.945 49.0002H286.19L269.296 1.30228Z" fill="#004077"/>
<path d="M361.677 45.9847C358.586 48.6652 355.213 50.0054 351.56 50.0054C347.129 50.0054 343.281 48.2545 340.017 44.7525C336.752 41.2289 335.12 36.8299 335.12 31.5553C335.12 26.043 336.709 21.5682 339.887 18.1311C343.065 14.6724 346.88 12.943 351.333 12.943C355.311 12.943 358.758 14.2941 361.677 16.9962V0.102539H370.464V16.9962C373.382 14.2076 376.83 12.8133 380.808 12.8133C383.64 12.8133 386.277 13.5591 388.72 15.0507C391.162 16.5423 393.151 18.6824 394.686 21.471C396.221 24.2596 396.988 27.5778 396.988 31.4256C396.988 36.8082 395.334 41.2397 392.027 44.7201C388.741 48.1788 384.926 49.9082 380.581 49.9082C376.928 49.9082 373.555 48.6003 370.464 45.9847V61.9056H361.677V45.9847ZM388.136 31.3608C388.136 28.356 387.282 25.8916 385.574 23.9677C383.867 22.0222 381.662 21.0494 378.96 21.0494C376.625 21.0494 374.582 21.979 372.831 23.838C371.102 25.6755 370.237 28.3019 370.237 31.7174C370.237 34.8951 371.069 37.3811 372.734 39.1753C374.42 40.9695 376.506 41.8666 378.992 41.8666C381.564 41.8666 383.726 40.883 385.477 38.9159C387.25 36.9271 388.136 34.4087 388.136 31.3608ZM361.936 31.685C361.936 29.372 361.547 27.4805 360.769 26.0105C359.991 24.519 358.942 23.33 357.624 22.4437C356.327 21.5574 354.846 21.1143 353.181 21.1143C350.328 21.1143 348.09 22.1303 346.469 24.1623C344.848 26.1727 344.037 28.5938 344.037 31.4256C344.037 34.452 344.913 36.9596 346.664 38.9483C348.415 40.9371 350.576 41.9315 353.149 41.9315C355.635 41.9315 357.721 41.0452 359.407 39.2726C361.093 37.4784 361.936 34.9492 361.936 31.685Z" fill="#004077"/>
<path d="M439.336 33.9224H410.899C411.309 36.4299 412.401 38.4295 414.174 39.9211C415.968 41.391 418.249 42.126 421.016 42.126C424.323 42.126 427.166 40.9695 429.543 38.6565L437.001 42.1585C435.142 44.7957 432.916 46.7521 430.322 48.0275C427.728 49.2813 424.647 49.9082 421.08 49.9082C415.546 49.9082 411.039 48.168 407.559 44.6876C404.079 41.1857 402.338 36.8082 402.338 31.5553C402.338 26.1727 404.068 21.7087 407.526 18.1636C411.007 14.5968 415.363 12.8133 420.594 12.8133C426.15 12.8133 430.668 14.5968 434.148 18.1636C437.628 21.7087 439.368 26.3996 439.368 32.2362L439.336 33.9224ZM430.451 26.9509C429.868 24.9837 428.711 23.3841 426.982 22.1519C425.274 20.9197 423.285 20.3036 421.016 20.3036C418.551 20.3036 416.389 20.9954 414.53 22.3789C413.363 23.2436 412.282 24.7676 411.288 26.9509H430.451Z" fill="#004077"/>
<path d="M481.068 20.8549L473.707 24.9081C472.324 23.4597 470.951 22.4545 469.589 21.8925C468.249 21.3305 466.671 21.0494 464.855 21.0494C461.547 21.0494 458.867 22.0438 456.813 24.0326C454.781 25.9997 453.765 28.5289 453.765 31.6202C453.765 34.6249 454.749 37.0785 456.716 38.9808C458.683 40.883 461.266 41.8342 464.466 41.8342C468.422 41.8342 471.502 40.4831 473.707 37.781L480.678 42.5476C476.896 47.4546 471.556 49.9082 464.66 49.9082C458.456 49.9082 453.592 48.0707 450.069 44.3958C446.567 40.7209 444.816 36.4191 444.816 31.4905C444.816 28.075 445.67 24.9297 447.377 22.0546C449.085 19.1796 451.463 16.9206 454.511 15.2777C457.581 13.6348 461.007 12.8133 464.79 12.8133C468.292 12.8133 471.437 13.5159 474.226 14.921C477.014 16.3045 479.295 18.2825 481.068 20.8549Z" fill="#004077"/>
<path d="M485.931 13.7213H518.811V22.1519H507.105V49.0002H498.221V22.1519H485.931V13.7213Z" fill="#004077"/>
<path d="M529.284 49.0002H524.583V13.7213H533.208V34.4412L551.269 13.7213H555.517V49.0002H546.891V28.7019L529.284 49.0002Z" fill="#004077"/>
<path d="M564.498 49.0002V13.7213H578.668C583.316 13.7213 586.472 14.64 588.137 16.4774C589.801 18.2933 590.633 20.3577 590.633 22.6707C590.633 26.1078 588.926 28.583 585.51 30.0962C590.18 31.6958 592.514 34.7114 592.514 39.1429C592.514 41.5424 591.898 43.5311 590.666 45.1092C589.434 46.6656 587.866 47.7032 585.964 48.222C584.083 48.7408 581.446 49.0002 578.052 49.0002H564.498ZM573.383 27.5994H576.788C578.236 27.5994 579.349 27.2427 580.128 26.5293C580.927 25.7944 581.327 24.9837 581.327 24.0974C581.327 22.7788 580.949 21.752 580.192 21.017C579.436 20.282 578.539 19.9145 577.501 19.9145L576.366 19.947H573.383V27.5994ZM573.383 42.1909H577.825C579.555 42.1909 580.765 41.791 581.457 40.9911C582.17 40.1697 582.527 39.3699 582.527 38.5916C582.527 37.4459 582.127 36.3975 581.327 35.4464C580.549 34.4952 579.133 34.0196 577.08 34.0196H573.383V42.1909Z" fill="#004077"/>
<path d="M626.107 13.7213H634.927V49.0002H626.107V45.2713C624.378 46.9142 622.637 48.1031 620.886 48.8381C619.157 49.5515 617.276 49.9082 615.244 49.9082C610.683 49.9082 606.738 48.1464 603.409 44.6228C600.08 41.0776 598.416 36.6785 598.416 31.4256C598.416 25.9781 600.026 21.5142 603.247 18.0339C606.468 14.5535 610.381 12.8133 614.985 12.8133C617.104 12.8133 619.092 13.2133 620.951 14.0131C622.81 14.8129 624.529 16.0127 626.107 17.6123V13.7213ZM616.801 20.9846C614.055 20.9846 611.775 21.9573 609.959 23.9029C608.143 25.8268 607.235 28.3019 607.235 31.3283C607.235 34.3763 608.154 36.8839 609.992 38.851C611.851 40.8182 614.131 41.8018 616.833 41.8018C619.622 41.8018 621.935 40.8398 623.772 38.9159C625.61 36.9704 626.529 34.4304 626.529 31.2959C626.529 28.2263 625.61 25.7403 623.772 23.838C621.935 21.9357 619.611 20.9846 616.801 20.9846Z" fill="#004077"/>
<path d="M675.394 49.0002H666.38L657.56 26.7239L648.578 49.0002H639.596L654.641 13.7213H660.348L675.394 49.0002Z" fill="#004077"/>
<path d="M688.915 26.4321H691.542C695.238 26.4321 698.07 26.7239 700.037 27.3076C702.026 27.8696 703.701 29.0585 705.063 30.8744C706.425 32.6902 707.106 34.9708 707.106 37.7162C707.106 40.4399 706.49 42.7097 705.258 44.5255C704.026 46.3197 702.447 47.5195 700.524 48.1247C698.621 48.7084 695.941 49.0002 692.482 49.0002H680.031V13.7213H688.915V26.4321ZM688.915 42.1909H691.607C693.206 42.1909 694.363 42.0828 695.076 41.8666C695.789 41.6288 696.416 41.1857 696.957 40.5372C697.497 39.8887 697.767 39.0996 697.767 38.1701C697.767 35.1437 696.038 33.6305 692.579 33.6305H688.915V42.1909Z" fill="#004077"/>
<path d="M280.743 73.6966V77.5876C282.342 75.988 284.072 74.7882 285.931 73.9884C287.79 73.1886 289.779 72.7887 291.897 72.7887C296.501 72.7887 300.414 74.5288 303.635 78.0092C306.856 81.4895 308.466 85.9534 308.466 91.4009C308.466 96.6538 306.802 101.053 303.473 104.598C300.144 108.122 296.199 109.883 291.638 109.883C289.606 109.883 287.714 109.527 285.963 108.813C284.212 108.078 282.472 106.89 280.743 105.247V121.881H271.955V73.6966H280.743ZM290.049 80.9599C287.26 80.9599 284.947 81.911 283.11 83.8133C281.272 85.7156 280.354 88.2016 280.354 91.2712C280.354 94.4057 281.272 96.9457 283.11 98.8912C284.947 100.815 287.26 101.777 290.049 101.777C292.751 101.777 295.021 100.794 296.858 98.8264C298.717 96.8592 299.647 94.3516 299.647 91.3036C299.647 88.2773 298.739 85.8021 296.923 83.8782C295.107 81.9327 292.816 80.9599 290.049 80.9599Z" fill="#004077"/>
<path d="M341.865 73.6966H350.685V108.976H341.865V105.247C340.135 106.89 338.395 108.078 336.644 108.813C334.915 109.527 333.034 109.883 331.002 109.883C326.441 109.883 322.496 108.122 319.167 104.598C315.838 101.053 314.173 96.6538 314.173 91.4009C314.173 85.9534 315.784 81.4895 319.005 78.0092C322.226 74.5288 326.138 72.7887 330.743 72.7887C332.861 72.7887 334.85 73.1886 336.709 73.9884C338.568 74.7882 340.287 75.988 341.865 77.5876V73.6966ZM332.559 80.9599C329.813 80.9599 327.533 81.9327 325.717 83.8782C323.901 85.8021 322.993 88.2773 322.993 91.3036C322.993 94.3516 323.912 96.8592 325.749 98.8264C327.608 100.794 329.889 101.777 332.591 101.777C335.38 101.777 337.693 100.815 339.53 98.8912C341.368 96.9457 342.286 94.4057 342.286 91.2712C342.286 88.2016 341.368 85.7156 339.53 83.8133C337.693 81.911 335.369 80.9599 332.559 80.9599Z" fill="#004077"/>
<path d="M364.206 108.976V115.104H356.327V101.485H361.644L373.804 73.6966H379.511L391.833 101.485H397.248V115.104H388.817V108.976H364.206ZM382.429 101.485L376.657 86.6344L370.691 101.485H382.429Z" fill="#004077"/>
<path d="M407.559 108.976H402.857V73.6966H411.482V94.4165L429.543 73.6966H433.791V108.976H425.166V88.6772L407.559 108.976Z" fill="#004077"/>
<path d="M459.342 72.7887C462.671 72.7887 465.795 73.6209 468.713 75.2854C471.653 76.9499 473.945 79.2089 475.588 82.0624C477.231 84.9158 478.052 87.9962 478.052 91.3036C478.052 94.6327 477.22 97.7455 475.555 100.642C473.912 103.539 471.664 105.809 468.811 107.452C465.957 109.073 462.812 109.883 459.375 109.883C454.317 109.883 449.993 108.089 446.405 104.501C442.838 100.891 441.054 96.5133 441.054 91.3685C441.054 85.8561 443.076 81.2625 447.118 77.5876C450.663 74.3883 454.738 72.7887 459.342 72.7887ZM459.472 81.122C456.727 81.122 454.435 82.084 452.598 84.0079C450.782 85.9102 449.874 88.3529 449.874 91.3361C449.874 94.4057 450.771 96.8916 452.566 98.7939C454.381 100.696 456.673 101.647 459.44 101.647C462.207 101.647 464.509 100.685 466.346 98.7615C468.184 96.8376 469.103 94.3624 469.103 91.3361C469.103 88.3097 468.195 85.8561 466.379 83.9755C464.585 82.0732 462.282 81.122 459.472 81.122Z" fill="#004077"/>
<path d="M510.121 95.0326H498.286V87.3477H510.121C508.089 83.0892 504.652 80.9599 499.81 80.9599C496.416 80.9599 493.357 82.2677 490.633 84.8834L483.273 80.8302C487.661 75.4692 493.087 72.7887 499.55 72.7887C505.365 72.7887 510.142 74.5504 513.882 78.074C517.644 81.5976 519.524 86.0615 519.524 91.4658C519.524 96.6755 517.73 101.053 514.142 104.598C510.553 108.122 505.722 109.883 499.647 109.883C493.184 109.883 487.855 107.43 483.662 102.523L490.633 97.7563C492.795 100.545 495.908 101.939 499.972 101.939C504.836 101.939 508.219 99.637 510.121 95.0326Z" fill="#004077"/>
<path d="M558.273 108.976H549.258L540.439 86.6992L531.457 108.976H522.475L537.52 73.6966H543.227L558.273 108.976Z" fill="#004077"/>
<path d="M598.286 93.8977H569.849C570.259 96.4053 571.351 98.4048 573.124 99.8964C574.918 101.366 577.198 102.101 579.965 102.101C583.273 102.101 586.116 100.945 588.493 98.6318L595.951 102.134C594.092 104.771 591.866 106.727 589.272 108.003C586.678 109.257 583.597 109.883 580.03 109.883C574.496 109.883 569.989 108.143 566.509 104.663C563.029 101.161 561.288 96.7835 561.288 91.5306C561.288 86.148 563.018 81.6841 566.476 78.1389C569.957 74.5721 574.313 72.7887 579.544 72.7887C585.1 72.7887 589.617 74.5721 593.098 78.1389C596.578 81.6841 598.318 86.375 598.318 92.2115L598.286 93.8977ZM589.401 86.9262C588.818 84.959 587.661 83.3594 585.932 82.1272C584.224 80.895 582.235 80.279 579.965 80.279C577.501 80.279 575.339 80.9707 573.48 82.3542C572.313 83.2189 571.232 84.7429 570.238 86.9262H589.401Z" fill="#004077"/>
<path d="M605.484 73.6966H614.337V86.8938L626.529 73.6966H637.326L621.6 90.8821L637.521 108.976H625.783L615.277 96.5241L614.337 97.6266V108.976H605.484V73.6966Z" fill="#004077"/>
<path d="M638.007 73.6966H670.887V82.1272H659.181V108.976H650.296V82.1272H638.007V73.6966Z" fill="#004077"/>
<path d="M685.478 73.6966V77.5876C687.078 75.988 688.807 74.7882 690.666 73.9884C692.525 73.1886 694.514 72.7887 696.633 72.7887C701.237 72.7887 705.15 74.5288 708.371 78.0092C711.591 81.4895 713.202 85.9534 713.202 91.4009C713.202 96.6538 711.537 101.053 708.208 104.598C704.879 108.122 700.934 109.883 696.373 109.883C694.341 109.883 692.45 109.527 690.699 108.813C688.948 108.078 687.208 106.89 685.478 105.247V121.881H676.691V73.6966H685.478ZM694.784 80.9599C691.996 80.9599 689.683 81.911 687.845 83.8133C686.008 85.7156 685.089 88.2016 685.089 91.2712C685.089 94.4057 686.008 96.9457 687.845 98.8912C689.683 100.815 691.996 101.777 694.784 101.777C697.486 101.777 699.756 100.794 701.594 98.8264C703.453 96.8592 704.382 94.3516 704.382 91.3036C704.382 88.2773 703.474 85.8021 701.658 83.8782C699.843 81.9327 697.551 80.9599 694.784 80.9599Z" fill="#004077"/>
<path d="M737.1 72.7887C740.429 72.7887 743.552 73.6209 746.471 75.2854C749.411 76.9499 751.702 79.2089 753.345 82.0624C754.988 84.9158 755.809 87.9962 755.809 91.3036C755.809 94.6327 754.977 97.7455 753.312 100.642C751.669 103.539 749.421 105.809 746.568 107.452C743.714 109.073 740.569 109.883 737.132 109.883C732.074 109.883 727.75 108.089 724.162 104.501C720.595 100.891 718.812 96.5133 718.812 91.3685C718.812 85.8561 720.833 81.2625 724.875 77.5876C728.42 74.3883 732.495 72.7887 737.1 72.7887ZM737.229 81.122C734.484 81.122 732.193 82.084 730.355 84.0079C728.539 85.9102 727.631 88.3529 727.631 91.3361C727.631 94.4057 728.528 96.8916 730.323 98.7939C732.138 100.696 734.43 101.647 737.197 101.647C739.964 101.647 742.266 100.685 744.104 98.7615C745.941 96.8376 746.86 94.3624 746.86 91.3361C746.86 88.3097 745.952 85.8561 744.136 83.9755C742.342 82.0732 740.04 81.122 737.229 81.122Z" fill="#004077"/>
<path d="M771.925 86.4074H785.089V73.6966H793.974V108.976H785.089V94.3516H771.925V108.976H763.04V73.6966H771.925V86.4074Z" fill="#004077"/>
<path d="M807.625 108.976H802.923V73.6966H811.549V94.4165L829.61 73.6966H833.857V108.976H825.232V88.6772L807.625 108.976Z" fill="#004077"/>
<path d="M842.839 73.6966H851.691V86.8938L863.883 73.6966H874.681L858.955 90.8821L874.876 108.976H863.138L852.632 96.5241L851.691 97.6266V108.976H842.839V73.6966Z" fill="#004077"/>
<path d="M883.177 108.976H878.475V73.6966H887.1V94.4165L905.161 73.6966H909.409V108.976H900.784V88.6772L883.177 108.976Z" fill="#004077"/>
<path fill-rule="evenodd" clip-rule="evenodd" d="M241.454 12.5705C240.702 12.7738 240.079 13.1425 239.406 13.7832C237.646 15.4582 236.978 17.448 236.819 21.4896C236.794 22.1244 236.741 23.1978 236.7 23.875C236.659 24.5521 236.523 27.1145 236.398 29.5692C236.272 32.0239 235.895 39.2782 235.559 45.6899C235.223 52.1017 234.895 58.4384 234.83 59.7715C234.764 61.1047 234.643 63.442 234.56 64.9656C234.477 66.4892 234.358 68.8611 234.295 70.2366C234.13 73.8201 233.971 76.8976 233.798 79.8551C233.714 81.2729 233.611 83.264 233.567 84.2797C233.523 85.2954 233.455 86.6459 233.415 87.2807C233.375 87.9155 233.301 89.3439 233.25 90.4548C233.2 91.5658 233.136 92.4747 233.109 92.4747C233.051 92.4747 232.937 90.7034 232.723 86.5112C232.639 84.8607 232.45 81.5538 232.304 79.1626C232.159 76.7714 232.02 74.4861 231.997 74.084C231.974 73.6819 231.835 71.2754 231.689 68.7361C231.111 58.7474 230.296 44.2729 230.122 40.9191C229.959 37.7877 229.812 35.2206 229.664 32.9549C229.581 31.6853 229.461 29.573 229.396 28.2611C229.095 22.1477 229.012 21.4596 228.372 19.7948C227.771 18.2315 226.399 16.771 225.128 16.3426C223.391 15.757 221.651 16.2396 220.297 17.6826C219.251 18.7978 218.549 20.4612 218.344 22.3093C218.275 22.9318 218.16 24.8342 217.99 28.1456C217.965 28.6323 217.828 30.9523 217.684 33.3012C217.54 35.6501 217.37 38.6799 217.305 40.0342C217.241 41.3885 217.155 43.016 217.115 43.6508C217.074 44.2856 217.021 45.2206 216.996 45.7284C216.971 46.2363 216.868 48.0369 216.766 49.7297C216.665 51.4226 216.545 53.5349 216.5 54.4236C216.455 55.3124 216.283 58.273 216.118 61.0027C215.953 63.7325 215.781 66.7623 215.737 67.7357C215.693 68.7091 215.624 70.025 215.584 70.6598C215.544 71.2946 215.492 72.1949 215.467 72.6604C215.443 73.126 215.27 76.0346 215.083 79.1241C214.694 85.5609 214.476 89.4095 214.351 92.0515C214.244 94.313 214.174 94.7062 214.104 93.4366C213.787 87.6911 213.468 82.3698 213.171 77.893C213.067 76.3271 212.912 73.7993 212.826 72.2757C212.741 70.7521 212.587 68.2763 212.484 66.7739C212.381 65.2714 212.225 62.8476 212.138 61.3875C212.051 59.9274 211.879 57.1745 211.755 55.27C211.51 51.5209 211.216 46.6682 211.03 43.3045C210.877 40.5524 210.657 36.9513 210.378 32.6471C210.255 30.7427 210.117 28.5785 210.073 27.8378C209.909 25.1186 209.78 24.2717 209.369 23.2262C208.452 20.8942 206.757 19.5329 204.764 19.5285C203.377 19.5255 201.977 20.2989 201.079 21.5631C200.236 22.751 199.806 23.9913 199.627 25.7475C199.51 26.8944 199.063 33.8138 198.709 39.9573C198.601 41.8194 198.394 45.1436 198.249 47.3443C198.103 49.5451 197.896 52.9039 197.789 54.8084C197.682 56.7128 197.441 60.6084 197.254 63.4651C197.066 66.3218 196.825 70.2 196.718 72.0833C196.61 73.9667 196.405 77.3082 196.26 79.5089C196.116 81.7096 195.855 86.0033 195.681 89.0505C195.507 92.0977 195.34 94.6558 195.31 94.7354C195.281 94.8149 195.196 93.8453 195.123 92.5808C194.976 90.0623 194.787 87.2264 194.496 83.2024C194.392 81.7635 194.22 79.1838 194.114 77.4697C194.007 75.7557 193.819 72.9855 193.696 71.3138C193.573 69.6421 193.418 67.3914 193.351 66.3122C193.071 61.7498 192.84 58.1828 192.663 55.6933C192.559 54.2332 192.456 52.7442 192.432 52.3845C192.409 52.0247 192.306 50.5185 192.203 49.0372C192.099 47.5559 191.944 45.2359 191.858 43.8816C191.772 42.5273 191.583 39.7399 191.437 37.6873C191.292 35.6347 191.102 32.8126 191.015 31.416C190.794 27.8492 190.652 27.0798 189.975 25.7558C189.033 23.9138 187.56 22.8885 185.85 22.8854C184.7 22.8834 183.688 23.346 182.817 24.2723C182.062 25.0748 181.606 25.9009 181.268 27.0799C181.011 27.9734 180.944 28.5401 180.762 31.339C180.676 32.651 180.486 35.3865 180.34 37.418C180.194 39.4494 180.004 42.2715 179.919 43.6893C179.834 45.1071 179.611 48.3855 179.422 50.9748C179.233 53.5641 178.958 57.5289 178.81 59.7855C177.295 82.849 176.579 93.1329 176.476 93.3183C176.322 93.5945 176.233 92.8355 175.94 88.7427C175.771 86.3727 175.545 83.2563 175.438 81.8173C175.332 80.3784 175.126 77.5563 174.98 75.546C174.835 73.5357 174.631 70.7656 174.526 69.3901C174.324 66.7396 173.939 61.5377 173.565 56.3858C173.44 54.6718 173.235 51.9709 173.109 50.3838C172.984 48.7967 172.777 45.992 172.65 44.151C172.524 42.31 172.369 40.1285 172.306 39.3032C171.872 33.6009 171.713 31.7207 171.617 31.1466C170.969 27.2926 168.04 25.2545 165.162 26.6565C164.339 27.0574 163.374 28.1714 162.857 29.3184C162.349 30.4451 162.263 31.1019 161.819 37.2157C161.502 41.5949 161.24 45.0877 160.746 51.538C160.641 52.9135 160.469 55.2162 160.364 56.6551C160.168 59.3396 159.791 64.3256 159.256 71.3138C159.089 73.4934 158.883 76.2636 158.798 77.4697C158.497 81.7459 158.027 87.9895 157.921 89.1316C157.785 90.5923 157.628 90.9809 157.354 90.5389C157.223 90.3291 157.148 89.4609 155.503 69.1978C154.919 62.0009 154.183 53.0792 153.938 50.2299C153.835 49.0237 153.594 46.0285 153.404 43.5738C152.905 37.1411 152.692 34.8171 152.53 34.0322C152.041 31.6623 150.665 29.9629 148.942 29.6031C148.341 29.4776 147.309 29.5502 146.771 29.7557C145.538 30.2265 144.471 31.4439 143.938 32.9897C143.595 33.9828 143.597 33.9578 142.689 44.7666C142.503 46.9884 142.158 51.0744 141.924 53.8465C141.69 56.6186 141.343 60.7392 141.154 63.0034C140.965 65.2676 140.709 68.2801 140.585 69.6979C140.461 71.1157 140.272 73.3838 140.164 74.7381C139.876 78.3477 139.298 85.1166 139.172 86.342C139.056 87.47 138.908 87.8963 138.632 87.8963C138.427 87.8963 138.233 87.5174 138.14 86.9344C138.096 86.6593 137.938 85.0838 137.789 83.4333C137.64 81.7827 137.417 79.3588 137.292 78.0469C137.167 76.7349 136.892 73.7743 136.68 71.4677C136.468 69.1612 136.055 64.677 135.763 61.5029C135.471 58.3288 135.058 53.8446 134.846 51.538C134.634 49.2315 134.322 45.8381 134.153 43.9971C133.504 36.9391 133.475 36.7323 132.979 35.6541C131.906 33.3181 129.976 32.2866 127.993 32.9876C126.874 33.3828 125.808 34.4536 125.313 35.6799C124.846 36.8357 124.809 37.0847 124.284 42.612C124.073 44.8339 123.505 50.7897 123.022 55.8472C122.539 60.9046 121.902 67.6049 121.605 70.7367C120.444 83.0097 120.307 84.3179 120.153 84.6217C119.957 85.0065 119.811 85.1154 119.572 85.0549C119.295 84.9852 119.088 84.4743 118.999 83.644C118.291 77.0251 117.87 73.0377 117.586 70.2366C117.394 68.3532 117.033 64.9079 116.782 62.5802C116.532 60.2525 116.085 56.0107 115.789 53.154C114.944 45.0057 114.49 40.8022 114.408 40.3624C114.192 39.2059 113.686 38.1467 112.985 37.3857C112.14 36.4679 111.312 36.0714 110.241 36.0714C108.279 36.0714 106.611 37.7289 106.112 40.1724C106.045 40.5023 105.766 42.8223 105.492 45.328C105.218 47.8336 104.6 53.4502 104.118 57.8094C103.636 62.1685 102.861 69.1978 102.396 73.4299C101.909 77.8509 101.498 81.2813 101.43 81.4927C101.3 81.8925 100.989 82.3175 100.826 82.3175C100.635 82.3175 100.264 81.9295 100.144 81.6036C100.034 81.3046 98.5634 69.6543 97.0733 57.2707C96.0277 48.5817 95.4263 43.8105 95.3175 43.343C95.0264 42.0916 94.5603 41.1854 93.8304 40.4513C92.9764 39.5924 92.0377 39.2593 90.8518 39.3942C89.3836 39.5611 87.9556 40.9833 87.4392 42.7928C87.3046 43.2644 86.981 45.4812 86.5163 49.1142C85.2237 59.2184 82.7581 77.9621 82.675 78.3162C82.5615 78.7993 82.1242 79.3935 81.882 79.3935C81.683 79.3935 81.3618 79.1024 81.1924 78.7684C81.0956 78.5775 80.9566 77.9332 80.8165 77.0251C80.4608 74.7206 78.8508 63.8043 77.5626 54.9623C76.909 50.4761 76.323 46.6039 76.2604 46.3573C75.8334 44.6769 74.9938 43.4989 73.8026 42.9093C73.363 42.6917 73.1936 42.6522 72.5842 42.6255C71.8058 42.5912 71.3357 42.6999 70.7139 43.0578C69.675 43.6556 68.8387 44.9559 68.4947 46.5081C68.4115 46.8834 68.134 48.5582 67.8779 50.2299C67.3936 53.393 65.7924 63.3948 64.5562 70.9786C64.0871 73.8567 63.7869 75.4954 63.687 75.7224C63.4665 76.2236 63.2709 76.3925 62.9107 76.3925C62.6584 76.3925 62.5765 76.3503 62.4148 76.1371C62.3082 75.9966 62.1683 75.7316 62.1039 75.5481C61.9946 75.2365 61.1961 70.9947 59.5397 61.9261C57.9198 53.0581 57.2383 49.4693 57.0852 49.0004C56.8731 48.3511 56.6425 47.9002 56.2615 47.3905C54.9148 45.5883 52.7738 45.3529 51.1819 46.8321C50.6251 47.3494 50.2882 47.8555 49.9782 48.6402C49.8118 49.0613 49.1668 52.0322 47.5999 59.5926C44.881 72.7129 44.9564 72.3647 44.7461 72.7759C44.5275 73.2033 44.126 73.4964 43.853 73.4279C43.5772 73.3588 43.4179 73.1914 43.2024 72.7444C43.0863 72.5037 42.1114 68.6743 40.6735 62.811C39.3865 57.5631 38.2998 53.1186 38.2586 52.9344C38.1187 52.3086 37.7154 51.3769 37.3402 50.813C36.1743 49.0601 34.1441 48.6867 32.4663 49.9163C32.0681 50.2082 31.5064 50.9547 31.2172 51.5765C31.0991 51.8304 30.0513 55.3104 28.8888 59.3099C26.0325 69.1362 25.9658 69.3574 25.7551 69.6929C25.5253 70.059 25.2101 70.3135 24.9867 70.3135C24.7699 70.3135 24.4687 70.0764 24.2654 69.7458C24.1784 69.6042 22.9221 66.2854 21.4736 62.3706C20.0252 58.4559 18.7638 55.1009 18.6707 54.9152C18.3998 54.375 17.8596 53.6511 17.5334 53.3913C17.3677 53.2595 17.0312 53.0569 16.7855 52.9411C16.3836 52.7518 16.2545 52.7307 15.4955 52.7307C14.697 52.7307 14.6249 52.7442 14.1421 52.9831C13.477 53.3124 12.7867 54.0556 12.2937 54.9731C12.0923 55.348 10.7735 58.0094 9.36308 60.8873C7.95273 63.7652 6.71365 66.2324 6.60965 66.37C6.50565 66.5076 6.31693 66.674 6.19027 66.7399C5.91553 66.8827 5.87681 66.8629 4.88545 66.0732C3.88445 65.2757 2.22209 64.1643 1.89991 64.0771C1.69626 64.022 1.51435 64.0229 1.30237 64.0803C0.958754 64.1733 0 64.5929 0 64.6503C0 64.6709 0.122446 64.958 0.27206 65.2884C0.563712 65.9321 0.778452 66.2026 1.26273 66.5359C2.53219 67.4098 3.24452 67.9406 3.66688 68.3275C3.93688 68.5749 4.38381 68.8893 4.66015 69.026C5.12981 69.2585 5.21483 69.2747 5.96765 69.2747C6.71235 69.2747 6.81016 69.2566 7.27025 69.0342C7.89381 68.7327 8.33729 68.3472 8.7305 67.765C9.02452 67.3297 11.0391 63.323 13.5046 58.2704C14.7728 55.6714 15.0136 55.3085 15.47 55.3085C16.0428 55.3085 16.2367 55.6284 17.1101 58.0149C17.4715 59.0022 18.5762 62.0261 19.5653 64.7347C21.7182 70.6312 21.7189 70.6327 22.1181 71.2683C23.1128 72.8519 24.7917 73.4052 26.3514 72.6632C27.2948 72.2145 28.1422 71.1439 28.5378 69.901C28.7498 69.2348 32.4542 56.6862 33.1409 54.3082C33.5236 52.9828 33.7522 52.4604 34.0652 52.1956C34.3295 51.972 34.5071 51.9522 34.8145 52.1119C35.2935 52.3611 35.4105 52.7551 37.1908 60.1178C40.1046 72.1686 40.4083 73.3895 40.6011 73.8278C41.0399 74.8253 41.8459 75.7022 42.7031 76.1147C43.1578 76.3334 43.2667 76.354 43.9698 76.354C44.7093 76.354 44.7625 76.3424 45.3406 76.055C46.4643 75.4966 47.262 74.4291 47.6759 72.9298C47.7635 72.6124 48.8871 67.3318 50.1727 61.1953C52.2399 51.3278 52.5378 49.9857 52.7492 49.5867C53.1995 48.7373 53.7121 48.7387 54.1638 49.5908C54.3845 50.0071 54.5667 50.9495 56.7429 62.9271C58.0307 70.0156 59.1385 76.0052 59.2045 76.2373C60.0062 79.0544 62.2632 80.3795 64.4318 79.3061C65.3718 78.8407 66.2938 77.6463 66.6511 76.4309C66.7951 75.941 67.8371 69.6808 70.5253 53.154C71.0661 49.8295 71.5604 47.0151 71.6423 46.7944C71.9019 46.0945 72.3136 45.8388 72.7342 46.1159C72.9417 46.2526 73.279 46.9727 73.3458 47.4213C73.4972 48.4391 76.1464 66.7452 76.9482 72.3142C77.4866 76.0542 77.9765 79.2062 78.0666 79.5089C78.3319 80.4011 78.7969 81.2187 79.3688 81.7987C80.7124 83.1613 82.6017 83.2826 84.0802 82.1011C84.7844 81.5383 85.4711 80.4013 85.7422 79.3492C85.8625 78.8828 86.4555 74.5998 87.7019 65.1964C88.0834 62.3185 88.6857 57.8171 89.0404 55.1931C89.3951 52.5691 89.878 48.9861 90.1136 47.2308C90.5414 44.0419 90.6405 43.5765 90.9694 43.2112C91.1548 43.0051 91.4894 43.0382 91.7194 43.2853C91.8277 43.4017 91.9823 43.722 92.063 43.9971C92.1949 44.4466 92.958 50.6016 94.3574 62.5032C94.5664 64.2807 94.8605 66.7392 95.0109 67.9666C95.1613 69.1939 95.6084 72.8817 96.0046 76.1616C96.7631 82.4412 96.811 82.7172 97.317 83.7247C98.1014 85.2863 99.3672 86.1669 100.824 86.164C102.565 86.1606 104.117 84.7872 104.758 82.6832C104.959 82.0223 104.997 81.7254 105.914 73.4953C106.334 69.7222 106.815 65.4631 106.982 64.0306C107.15 62.598 107.41 60.3006 107.561 58.9251C108.133 53.7181 109.519 41.6331 109.59 41.2377C109.671 40.7834 109.906 40.3447 110.132 40.2229C110.396 40.0805 110.685 40.3472 110.878 40.9114C110.927 41.0553 111.14 42.8559 111.351 44.9128C111.563 46.9696 111.924 50.4531 112.153 52.6538C112.382 54.8545 112.692 57.8844 112.842 59.3868C112.992 60.8892 113.319 64.0922 113.569 66.5046C113.819 68.9169 114.214 72.8124 114.448 75.1613C115.149 82.2224 115.406 84.6196 115.52 85.1552C116.023 87.5339 117.391 89.1136 119.2 89.4048C121.383 89.7562 123.392 87.9688 123.933 85.1935C124.048 84.6061 124.24 82.7245 125.621 68.6206C125.98 64.9598 126.462 60.0774 126.692 57.7709C126.923 55.4643 127.199 52.6423 127.306 51.4996C127.848 45.7196 128.572 38.5251 128.649 38.1616C128.702 37.9113 128.82 37.6563 128.951 37.5084C129.159 37.2743 129.172 37.2706 129.316 37.4019C129.685 37.7371 129.684 37.7287 130.64 48.2677C131.147 53.8542 131.648 59.4118 131.753 60.618C131.859 61.8242 132.115 64.6982 132.324 67.0047C132.533 69.3113 132.945 73.9513 133.24 77.3158C134.226 88.5641 134.188 88.2289 134.621 89.426C135.2 91.0244 136.388 92.2441 137.714 92.6009C138.169 92.7231 139.032 92.7334 139.512 92.6221C140.785 92.3273 142.012 91.1508 142.617 89.6443C143.034 88.6071 143.093 88.1826 143.529 83.087C143.679 81.3306 143.972 77.9545 144.181 75.5845C144.389 73.2145 144.664 70.0115 144.793 68.4667C144.922 66.922 145.146 64.3596 145.29 62.7725C145.435 61.1855 145.675 58.4153 145.824 56.6166C145.974 54.818 146.266 51.4765 146.475 49.1911C146.684 46.9057 147.01 43.1314 147.201 40.8037C147.392 38.476 147.585 36.2599 147.63 35.879C147.71 35.214 147.943 34.5324 148.091 34.5324C148.213 34.5324 148.449 34.9952 148.498 35.329C148.523 35.5045 148.681 37.4141 148.85 39.5725C149.018 41.7309 149.223 44.3279 149.307 45.3437C149.391 46.3594 149.562 48.5236 149.689 50.153C149.815 51.7823 150.109 55.4874 150.342 58.3865C150.574 61.2855 150.885 65.181 151.031 67.0432C151.177 68.9054 151.434 72.1083 151.602 74.1609C151.769 76.2136 151.96 78.6374 152.026 79.5474C152.357 84.1506 152.917 90.7381 153.024 91.282C153.372 93.0715 154.15 94.4431 155.298 95.2927C155.813 95.6739 156.374 95.9016 157.074 96.0141C158.908 96.3088 160.875 94.937 161.699 92.7877C162.089 91.7719 162.227 90.8384 162.473 87.5739C162.6 85.8891 162.823 82.987 162.969 81.1248C163.116 79.2626 163.373 75.9558 163.54 73.7762C163.708 71.5966 164.036 67.3722 164.269 64.3885C164.502 61.4048 164.796 57.6304 164.922 56.0011C165.048 54.3717 165.237 51.9824 165.342 50.6916C165.446 49.4008 165.617 47.202 165.722 45.8054C166.324 37.7723 166.786 32.3196 166.887 32.07C166.99 31.8162 167.002 31.809 167.103 31.9458C167.253 32.1506 167.243 32.0356 167.752 39.3032C168.006 42.9217 168.281 46.7826 168.364 47.883C168.448 48.9833 168.585 50.9051 168.67 52.1536C168.818 54.3208 168.99 56.7298 169.664 66.0429C169.83 68.3282 170.02 70.9945 170.086 71.9679C170.152 72.9413 170.325 75.3132 170.469 77.2389C170.614 79.1645 170.837 82.3502 170.965 84.3182C171.294 89.3833 171.563 93.0976 171.657 93.8598C171.979 96.4905 173.4 98.5948 175.246 99.176C175.847 99.3654 176.791 99.399 177.394 99.2526C179.231 98.8068 180.74 96.921 181.181 94.5225C181.3 93.8757 181.547 90.6477 182.178 81.5095C182.368 78.7524 182.843 72.0055 183.284 65.7735C183.412 63.9749 183.62 61.0316 183.746 59.2329C184.303 51.2776 185.065 40.5163 185.235 38.1874C185.338 36.7908 185.458 34.9902 185.503 34.1861C185.549 33.382 185.601 32.6202 185.621 32.4932C185.64 32.3663 185.691 31.6691 185.733 30.944C185.821 29.4538 185.911 29.0115 185.989 29.6896C186.055 30.2593 186.366 34.9599 186.691 40.3035C187.069 46.5294 187.171 48.128 187.344 50.5377C187.427 51.7016 187.565 53.8484 187.65 55.3085C187.735 56.7686 187.941 59.9197 188.107 62.3109C188.273 64.702 188.462 67.4722 188.527 68.4667C188.885 74.0048 189.974 91.0283 190.136 93.629C190.358 97.1777 190.416 97.6711 190.713 98.5708C191.574 101.172 193.292 102.709 195.34 102.709C197.345 102.709 199.212 101.139 200.009 98.7817C200.254 98.058 200.478 96.4934 200.582 94.7832C200.626 94.0426 200.714 92.6402 200.776 91.6668C200.838 90.6934 200.907 89.5853 200.929 89.2044C201.116 86.0072 201.7 76.7981 201.882 74.1609C202.007 72.3623 202.18 69.6787 202.266 68.1974C202.352 66.7162 202.542 63.7902 202.688 61.6953C202.834 59.6003 203.039 56.4147 203.143 54.616C203.247 52.8173 203.351 51.1379 203.373 50.884C203.396 50.63 203.449 49.8163 203.491 49.0757C203.534 48.335 203.671 46.2055 203.796 44.3433C203.921 42.4812 204.109 39.5725 204.213 37.8796C204.621 31.2484 204.749 29.4609 204.806 29.5517C204.839 29.6037 204.866 29.8366 204.867 30.0694C204.867 30.3021 204.92 31.3063 204.983 32.3009C205.182 35.4271 205.553 41.5873 205.635 43.1506C205.679 43.9759 205.817 46.2356 205.941 48.1722C206.066 50.1088 206.237 52.9828 206.32 54.559C206.403 56.135 206.508 57.996 206.552 58.6943C206.818 62.9102 207.106 67.7321 207.241 70.2366C207.327 71.8236 207.499 74.6457 207.623 76.5079C207.942 81.3027 208.199 85.6172 208.462 90.551C208.587 92.8999 208.708 95.0294 208.73 95.2834C208.753 95.5373 208.806 96.4376 208.85 97.284C208.993 100.113 209.137 101.047 209.62 102.293C210.211 103.816 211.224 105.054 212.329 105.601C214.671 106.759 217.3 105.698 218.621 103.061C219.367 101.573 219.534 100.662 219.748 96.9342C219.81 95.8569 219.931 93.8502 220.017 92.4747C220.102 91.0993 220.241 88.7966 220.325 87.3576C220.774 79.6745 220.878 77.9002 221.018 75.5075C221.102 74.0686 221.292 70.8656 221.438 68.3898C221.585 65.914 221.756 62.988 221.818 61.8876C221.88 60.7873 222.018 58.3288 222.126 56.4243C222.233 54.5198 222.439 51.109 222.584 48.8448C222.729 46.5806 222.901 43.672 222.966 42.3811C223.031 41.0903 223.117 39.5321 223.158 38.9185C223.198 38.3048 223.319 36.2964 223.426 34.4554C223.534 32.6144 223.651 30.9697 223.687 30.8004L223.752 30.4926L223.762 30.8773C223.778 31.5187 223.915 34.0134 224.116 37.341C224.3 40.3841 224.386 41.9405 224.801 49.8452C224.906 51.8554 225.028 54.0716 225.07 54.7699C225.113 55.4682 225.199 57.1303 225.261 58.4634C225.393 61.279 225.456 62.4335 225.761 67.6588C225.885 69.7749 226.056 72.8394 226.141 74.4687C226.226 76.0981 226.33 77.968 226.373 78.624C226.481 80.2944 226.73 85.035 226.869 88.0502C226.991 90.7138 227.097 92.6877 227.407 98.092C227.679 102.835 227.673 102.762 227.791 103.517C227.942 104.477 228.168 105.252 228.519 106.006C229.253 107.58 230.548 108.841 231.846 109.244C234.666 110.121 237.43 108.144 238.309 104.621C238.595 103.475 238.669 102.721 238.812 99.5155C238.876 98.0766 239.013 95.4449 239.115 93.6674C239.217 91.8899 239.354 89.4487 239.419 88.2426C239.484 87.0364 239.638 84.3355 239.763 82.2406C239.887 80.1456 240.025 77.6179 240.07 76.6233C240.115 75.6287 240.202 73.9147 240.264 72.8143C240.326 71.714 240.498 68.5629 240.647 65.812C240.796 63.0611 241.053 58.525 241.218 55.7317C241.384 52.9385 241.555 49.8567 241.599 48.8833C241.644 47.9099 241.733 46.1439 241.798 44.9589C241.863 43.7739 242.05 40.3685 242.213 37.3913C242.376 34.414 242.529 31.9584 242.553 31.9343C242.577 31.9102 242.597 32.0991 242.597 32.3541C242.597 32.6091 242.682 34.4415 242.786 36.426C242.89 38.4105 243.01 40.8653 243.054 41.881C243.176 44.7266 243.349 48.1677 243.556 51.8843C243.659 53.7465 243.778 56.1357 243.82 57.1938C243.862 58.2518 243.93 59.6888 243.971 60.3871C244.012 61.0854 244.065 62.1762 244.089 62.811C244.113 63.4458 244.2 65.2464 244.283 66.8123C244.366 68.3783 244.486 70.8021 244.549 72.1988C244.752 76.6725 244.812 77.9116 244.97 80.817C245.055 82.3829 245.176 84.8414 245.238 86.2804C245.41 90.2602 245.56 93.3788 245.731 96.4761C245.816 98.0208 245.957 100.843 246.044 102.747C246.215 106.474 246.264 106.867 246.674 107.705C246.985 108.342 247.759 109.177 248.28 109.438C248.619 109.608 248.773 109.634 249.411 109.634C250.08 109.634 250.192 109.613 250.615 109.4C251.478 108.966 252.206 107.971 252.497 106.826C252.7 106.032 252.717 105.424 252.594 103.44C252.529 102.382 252.456 101.101 252.432 100.593C252.408 100.085 252.304 98.0073 252.2 95.9759C252.096 93.9445 251.856 89.2006 251.666 85.4339C251.477 81.6673 251.234 76.8715 251.128 74.7765C251.021 72.6816 250.814 68.5956 250.668 65.6966C250.325 58.8843 249.887 50.529 249.79 48.9603C249.675 47.1019 249.425 42.2746 249.296 39.4186C249.176 36.7748 249.096 35.2208 248.72 28.2226C248.596 25.9161 248.475 23.5961 248.451 23.067C248.3 19.7803 248.157 18.4386 247.839 17.3387C247.379 15.7482 246.803 14.7504 245.791 13.7866C244.778 12.8225 243.86 12.4436 242.561 12.4532C242.181 12.456 241.683 12.5087 241.454 12.5705Z" fill="#C10630"/>
</svg>
